<?xml version="1.0" encoding="utf-8"?>
<!-- Generator: Adobe Illustrator 22.1.0, SVG Export Plug-In . SVG Version: 6.00 Build 0)  -->
<svg version="1.1" id="Layer_1" xmlns="http://www.w3.org/2000/svg" xmlns:xlink="http://www.w3.org/1999/xlink" x="0px" y="0px"
	 viewBox="0 0 326.5 288.2" style="enable-background:new 0 0 326.5 288.2;" xml:space="preserve">
<style type="text/css">
	.st0{fill:#FFEBEE;}
	.st1{fill:#EF9A9A;}
	.st2{fill:#EF5350;}
	.st3{fill:#E53935;}
</style>
<path class="st0" d="M0,0c14.4,32.6,54.1,76.7,159.5,110c64,20.2,8.9,93.3,167,178.2V0.8L298.4,0H0z"/>
<path class="st1" d="M27.8,0c4.6,18.5,17.7,41.8,47.9,62c60.5,40.5,67.5-39,160.5,108c38.6,61.1,68.7,86.7,90.3,94.1V0H27.8z"/>
<path class="st2" d="M43.6,0c4.1,11.7,10.1,21.1,18.5,25.7c33,18,84-14,115,25.5s85,135.5,137.5,152.5c3.8,1.2,7.8,2.4,11.9,3.4V0
	H43.6z"/>
<path class="st3" d="M142.2,0c41.2,14.4,89.6,50,129.3,125.9c18.9,36.1,37.5,57.5,55.1,68.5V0H142.2z"/>
</svg>
